<svg xmlns="http://www.w3.org/2000/svg" viewBox="0 0 1360 980" width="1360" height="980" role="img">
  <title>Agentic coding loop — one turn, fully expanded</title>
  <desc>A single turn: intake assembles context, the model plans and routes to sandboxed tools, observations are verified and either fed back for another step or finalized into a response. Memory is read and written throughout.</desc>
  <style>text { font-family: 'Anthropic Sans', -apple-system, BlinkMacSystemFont, 'Segoe UI', 'PingFang SC', 'Microsoft YaHei', 'Hiragino Sans GB', 'Noto Sans CJK SC', sans-serif; }</style>
  <defs>
    <marker id="arrow" viewBox="0 0 10 10" refX="8" refY="5"
            markerWidth="6" markerHeight="6" orient="auto-start-reverse">
      <path d="M2 1L8 5L2 9" fill="none" stroke="context-stroke"
            stroke-width="1.5" stroke-linecap="round" stroke-linejoin="round"/>
    </marker>
  </defs>
  <rect width="1360" height="980" fill="#FFFFFF"/>
  <rect x="28" y="72" width="232" height="320" rx="14" fill="none" stroke="rgba(31,30,29,0.3)" stroke-width="0.5" stroke-dasharray="4 3"/>
  <text x="48" y="98" dominant-baseline="central" font-size="14" font-weight="500" fill="#141413">1 · Intake</text>
  <text x="48" y="116" dominant-baseline="central" font-size="12" fill="#3D3D3A">all the model sees</text>
  <rect x="548" y="72" width="300" height="320" rx="14" fill="none" stroke="rgba(31,30,29,0.3)" stroke-width="0.5" stroke-dasharray="4 3"/>
  <text x="568" y="98" dominant-baseline="central" font-size="14" font-weight="500" fill="#141413">2 · Reasoning</text>
  <text x="568" y="116" dominant-baseline="central" font-size="12" fill="#3D3D3A">plan the next action</text>
  <rect x="896" y="72" width="232" height="452" rx="14" fill="none" stroke="rgba(31,30,29,0.3)" stroke-width="0.5" stroke-dasharray="4 3"/>
  <text x="916" y="98" dominant-baseline="central" font-size="14" font-weight="500" fill="#141413">3 · Tools</text>
  <text x="916" y="116" dominant-baseline="central" font-size="12" fill="#3D3D3A">sandboxed</text>
  <rect x="1148" y="72" width="184" height="320" rx="14" fill="none" stroke="rgba(31,30,29,0.3)" stroke-width="0.5" stroke-dasharray="4 3"/>
  <text x="1168" y="98" dominant-baseline="central" font-size="14" font-weight="500" fill="#141413">Memory</text>
  <text x="1168" y="116" dominant-baseline="central" font-size="12" fill="#3D3D3A">read + write</text>
  <rect x="28" y="600" width="1100" height="200" rx="14" fill="none" stroke="rgba(31,30,29,0.3)" stroke-width="0.5" stroke-dasharray="4 3"/>
  <text x="48" y="626" dominant-baseline="central" font-size="14" font-weight="500" fill="#141413">4 · Verify &amp; finalize</text>
  <text x="48" y="644" dominant-baseline="central" font-size="12" fill="#3D3D3A">loop or answer</text>
  <path d="M176 156 L300 156 L300 242 L322 242" fill="none" stroke="#1D9E75" stroke-width="1.5" stroke-linecap="round" marker-end="url(#arrow)"/>
  <line x1="200" y1="242" x2="322" y2="242" stroke="#73726C" stroke-width="1.5" stroke-linecap="round" marker-end="url(#arrow)"/>
  <path d="M184 328 L300 328 L300 242 L322 242" fill="none" stroke="#73726C" stroke-width="1.5" stroke-linecap="round" marker-end="url(#arrow)"/>
  <line x1="474" y1="242" x2="580" y2="156" stroke="#1D9E75" stroke-width="1.5" stroke-linecap="round" marker-end="url(#arrow)"/>
  <line x1="658" y1="184" x2="656" y2="300" stroke="#7F77DD" stroke-width="1.5" stroke-linecap="round" marker-end="url(#arrow)"/>
  <path d="M732 328 L872 328 L872 156 L916 156" fill="none" stroke="#73726C" stroke-width="1.5" stroke-linecap="round" marker-end="url(#arrow)"/>
  <path d="M732 328 L872 328 L872 236 L916 236" fill="none" stroke="#EF9F27" stroke-width="1.5" stroke-linecap="round" marker-end="url(#arrow)"/>
  <path d="M732 328 L872 328 L872 316 L916 316" fill="none" stroke="#EF9F27" stroke-width="1.5" stroke-linecap="round" marker-end="url(#arrow)"/>
  <path d="M732 328 L872 328 L872 396 L916 396" fill="none" stroke="#73726C" stroke-width="1.5" stroke-linecap="round" marker-end="url(#arrow)"/>
  <path d="M732 328 L872 328 L872 476 L916 476" fill="none" stroke="#1D9E75" stroke-width="1.5" stroke-linecap="round" marker-end="url(#arrow)"/>
  <path d="M736 156 L872 156 L872 192 L1112 192 L1112 156 L1162 156" fill="none" stroke="#1D9E75" stroke-width="1.5" stroke-linecap="round" marker-end="url(#arrow)"/>
  <line x1="1140" y1="156" x2="1140" y2="328" stroke="#73726C" stroke-width="1.5"/>
  <line x1="1140" y1="242" x2="1162" y2="242" stroke="#73726C" stroke-width="1.5"/>
  <line x1="1140" y1="328" x2="1162" y2="328" stroke="#73726C" stroke-width="1.5"/>
  <line x1="1104" y1="156" x2="1104" y2="620" stroke="#73726C" stroke-width="1.5"/>
  <line x1="1066" y1="156" x2="1104" y2="156" stroke="#73726C" stroke-width="1.5"/>
  <line x1="1066" y1="236" x2="1104" y2="236" stroke="#73726C" stroke-width="1.5"/>
  <line x1="1066" y1="316" x2="1104" y2="316" stroke="#73726C" stroke-width="1.5"/>
  <line x1="1066" y1="396" x2="1104" y2="396" stroke="#73726C" stroke-width="1.5"/>
  <line x1="1066" y1="476" x2="1104" y2="476" stroke="#73726C" stroke-width="1.5"/>
  <path d="M1104 620 L996 620 L976 656" fill="none" stroke="#73726C" stroke-width="1.5" stroke-linecap="round" marker-end="url(#arrow)"/>
  <line x1="916" y1="684" x2="742" y2="684" stroke="#EF9F27" stroke-width="1.5" stroke-linecap="round" marker-end="url(#arrow)"/>
  <line x1="622" y1="684" x2="450" y2="684" stroke="#1D9E75" stroke-width="1.5" stroke-linecap="round" marker-end="url(#arrow)"/>
  <line x1="330" y1="684" x2="172" y2="684" stroke="#1D9E75" stroke-width="1.5" stroke-linecap="round" marker-end="url(#arrow)"/>
  <path d="M682 656 L712 584 L540 584 L540 120 L670 120 L658 128" fill="none" stroke="#C75B38" stroke-width="1.5" stroke-linecap="round" marker-end="url(#arrow)"/>
  <rect x="320" y="38" width="16" height="14" rx="3" fill="#1D9E75"/>
  <rect x="340" y="38" width="16" height="14" rx="3" fill="#1D9E75"/>
  <rect x="360" y="38" width="16" height="14" rx="3" fill="#1D9E75"/>
  <rect x="380" y="38" width="16" height="14" rx="3" fill="#1D9E75"/>
  <rect x="400" y="38" width="16" height="14" rx="3" fill="#1D9E75"/>
  <rect x="420" y="38" width="16" height="14" rx="3" fill="#1D9E75"/>
  <rect x="440" y="38" width="16" height="14" rx="3" fill="#1D9E75"/>
  <rect x="460" y="38" width="16" height="14" rx="3" fill="#DAD8CF"/>
  <rect x="480" y="38" width="16" height="14" rx="3" fill="#DAD8CF"/>
  <rect x="500" y="38" width="16" height="14" rx="3" fill="#DAD8CF"/>
  <rect x="520" y="38" width="16" height="14" rx="3" fill="#DAD8CF"/>
  <rect x="48" y="128" width="128" height="56" rx="8" fill="#E1F5EE" stroke="#0F6E56" stroke-width="0.5"/>
  <rect x="48" y="214" width="152" height="56" rx="8" fill="#F5F4ED" stroke="rgba(31,30,29,0.3)" stroke-width="0.5"/>
  <rect x="48" y="300" width="136" height="56" rx="8" fill="#F5F4ED" stroke="rgba(31,30,29,0.3)" stroke-width="0.5"/>
  <rect x="322" y="214" width="152" height="56" rx="8" fill="#E1F5EE" stroke="#0F6E56" stroke-width="0.5"/>
  <rect x="580" y="128" width="156" height="56" rx="8" fill="#EEEDFE" stroke="#534AB7" stroke-width="0.5"/>
  <rect x="580" y="300" width="152" height="56" rx="8" fill="#EEEDFE" stroke="#534AB7" stroke-width="0.5"/>
  <rect x="916" y="128" width="120" height="56" rx="8" fill="#F5F4ED" stroke="rgba(31,30,29,0.3)" stroke-width="0.5"/>
  <rect x="916" y="208" width="120" height="56" rx="8" fill="#FAEEDA" stroke="#854F0B" stroke-width="0.5"/>
  <rect x="916" y="288" width="120" height="56" rx="8" fill="#FAEEDA" stroke="#854F0B" stroke-width="0.5"/>
  <rect x="916" y="368" width="120" height="56" rx="8" fill="#F5F4ED" stroke="rgba(31,30,29,0.3)" stroke-width="0.5"/>
  <rect x="916" y="448" width="120" height="56" rx="8" fill="#E1F5EE" stroke="#0F6E56" stroke-width="0.5"/>
  <rect x="1162" y="128" width="120" height="56" rx="8" fill="#E1F5EE" stroke="#0F6E56" stroke-width="0.5"/>
  <rect x="1162" y="214" width="120" height="56" rx="8" fill="#F5F4ED" stroke="rgba(31,30,29,0.3)" stroke-width="0.5"/>
  <rect x="1162" y="300" width="128" height="56" rx="8" fill="#F5F4ED" stroke="rgba(31,30,29,0.3)" stroke-width="0.5"/>
  <rect x="916" y="656" width="120" height="56" rx="8" fill="#FAEEDA" stroke="#854F0B" stroke-width="0.5"/>
  <rect x="622" y="656" width="120" height="56" rx="8" fill="#FAEEDA" stroke="#854F0B" stroke-width="0.5"/>
  <rect x="330" y="656" width="120" height="56" rx="8" fill="#E1F5EE" stroke="#0F6E56" stroke-width="0.5"/>
  <rect x="48" y="656" width="124" height="56" rx="8" fill="#E1F5EE" stroke="#0F6E56" stroke-width="0.5"/>
  <text x="40" y="50" dominant-baseline="central" font-size="16" font-weight="600" fill="#141413">Agent loop · turn 7 of N</text>
  <text x="112" y="148" text-anchor="middle" dominant-baseline="central" font-size="14" font-weight="500" fill="#085041">User request</text>
  <text x="112" y="165" text-anchor="middle" dominant-baseline="central" font-size="12" fill="#0F6E56">task + limits</text>
  <text x="124" y="234" text-anchor="middle" dominant-baseline="central" font-size="14" font-weight="500" fill="#141413">Session history</text>
  <text x="124" y="251" text-anchor="middle" dominant-baseline="central" font-size="12" fill="#3D3D3A">prior 6 turns</text>
  <text x="116" y="320" text-anchor="middle" dominant-baseline="central" font-size="14" font-weight="500" fill="#141413">Repo snapshot</text>
  <text x="116" y="337" text-anchor="middle" dominant-baseline="central" font-size="12" fill="#3D3D3A">tree + diffs</text>
  <text x="398" y="234" text-anchor="middle" dominant-baseline="central" font-size="14" font-weight="500" fill="#085041">Context builder</text>
  <text x="398" y="251" text-anchor="middle" dominant-baseline="central" font-size="12" fill="#0F6E56">assemble prompt</text>
  <text x="658" y="148" text-anchor="middle" dominant-baseline="central" font-size="14" font-weight="500" fill="#3C3489">Model</text>
  <text x="658" y="165" text-anchor="middle" dominant-baseline="central" font-size="12" fill="#534AB7">reason + plan step</text>
  <text x="656" y="320" text-anchor="middle" dominant-baseline="central" font-size="14" font-weight="500" fill="#3C3489">Tool router</text>
  <text x="656" y="337" text-anchor="middle" dominant-baseline="central" font-size="12" fill="#534AB7">choose one action</text>
  <text x="976" y="148" text-anchor="middle" dominant-baseline="central" font-size="14" font-weight="500" fill="#141413">Read file</text>
  <text x="976" y="165" text-anchor="middle" dominant-baseline="central" font-size="12" fill="#3D3D3A">fs read</text>
  <text x="976" y="228" text-anchor="middle" dominant-baseline="central" font-size="14" font-weight="500" fill="#633806">Apply edit</text>
  <text x="976" y="245" text-anchor="middle" dominant-baseline="central" font-size="12" fill="#854F0B">write patch</text>
  <text x="976" y="308" text-anchor="middle" dominant-baseline="central" font-size="14" font-weight="500" fill="#633806">Run shell</text>
  <text x="976" y="325" text-anchor="middle" dominant-baseline="central" font-size="12" fill="#854F0B">exec command</text>
  <text x="976" y="388" text-anchor="middle" dominant-baseline="central" font-size="14" font-weight="500" fill="#141413">Search</text>
  <text x="976" y="405" text-anchor="middle" dominant-baseline="central" font-size="12" fill="#3D3D3A">grep + embed</text>
  <text x="976" y="468" text-anchor="middle" dominant-baseline="central" font-size="14" font-weight="500" fill="#085041">Run tests</text>
  <text x="976" y="485" text-anchor="middle" dominant-baseline="central" font-size="12" fill="#0F6E56">pytest -q</text>
  <text x="1222" y="148" text-anchor="middle" dominant-baseline="central" font-size="14" font-weight="500" fill="#085041">Working</text>
  <text x="1222" y="165" text-anchor="middle" dominant-baseline="central" font-size="12" fill="#0F6E56">current goal</text>
  <text x="1222" y="234" text-anchor="middle" dominant-baseline="central" font-size="14" font-weight="500" fill="#141413">Episodic</text>
  <text x="1222" y="251" text-anchor="middle" dominant-baseline="central" font-size="12" fill="#3D3D3A">past actions</text>
  <text x="1226" y="320" text-anchor="middle" dominant-baseline="central" font-size="14" font-weight="500" fill="#141413">Semantic</text>
  <text x="1226" y="337" text-anchor="middle" dominant-baseline="central" font-size="12" fill="#3D3D3A">code knowledge</text>
  <text x="976" y="676" text-anchor="middle" dominant-baseline="central" font-size="14" font-weight="500" fill="#633806">Observation</text>
  <text x="976" y="693" text-anchor="middle" dominant-baseline="central" font-size="12" fill="#854F0B">tool output</text>
  <text x="682" y="676" text-anchor="middle" dominant-baseline="central" font-size="14" font-weight="500" fill="#633806">Verifier</text>
  <text x="682" y="693" text-anchor="middle" dominant-baseline="central" font-size="12" fill="#854F0B">diff + tests</text>
  <text x="390" y="676" text-anchor="middle" dominant-baseline="central" font-size="14" font-weight="500" fill="#085041">Patch set</text>
  <text x="390" y="693" text-anchor="middle" dominant-baseline="central" font-size="12" fill="#0F6E56">staged diff</text>
  <text x="110" y="676" text-anchor="middle" dominant-baseline="central" font-size="14" font-weight="500" fill="#085041">Response</text>
  <text x="110" y="693" text-anchor="middle" dominant-baseline="central" font-size="12" fill="#0F6E56">answer + diff</text>
  <text x="572" y="50" dominant-baseline="central" font-size="12" fill="#3D3D3A">each cell = one completed turn</text>
  <text x="527" y="191" text-anchor="middle" dominant-baseline="central" font-size="12" fill="#3D3D3A">prompt</text>
  <text x="665" y="242" text-anchor="start" dominant-baseline="central" font-size="12" fill="#3D3D3A">action</text>
  <text x="992" y="184" text-anchor="middle" dominant-baseline="central" font-size="12" fill="#3D3D3A">r/w</text>
  <text x="1050" y="612" text-anchor="middle" dominant-baseline="central" font-size="12" fill="#3D3D3A">observe</text>
  <text x="829" y="676" text-anchor="middle" dominant-baseline="central" font-size="12" fill="#3D3D3A">result</text>
  <text x="536" y="676" text-anchor="middle" dominant-baseline="central" font-size="12" fill="#3D3D3A">pass</text>
  <text x="548" y="352" text-anchor="start" dominant-baseline="central" font-size="12" fill="#3D3D3A">not done</text>
  <text x="40" y="912" dominant-baseline="central" font-size="12" fill="#3D3D3A">One turn shown. The terracotta edge re-enters the model with each new observation until the verifier passes; the response is then finalized and the turn counter advances.</text>
  <rect x="40" y="844" width="12" height="12" rx="3" fill="#E1F5EE" stroke="#0F6E56" stroke-width="0.5"/>
  <text x="58" y="850" dominant-baseline="central" font-size="12" fill="#3D3D3A">primary / success</text>
  <rect x="199" y="844" width="12" height="12" rx="3" fill="#EEEDFE" stroke="#534AB7" stroke-width="0.5"/>
  <text x="217" y="850" dominant-baseline="central" font-size="12" fill="#3D3D3A">model reasoning</text>
  <rect x="343" y="844" width="12" height="12" rx="3" fill="#FAEEDA" stroke="#854F0B" stroke-width="0.5"/>
  <text x="361" y="850" dominant-baseline="central" font-size="12" fill="#3D3D3A">tool / mutation</text>
  <rect x="488" y="844" width="12" height="12" rx="3" fill="#FAECE7" stroke="#993C1D" stroke-width="0.5"/>
  <text x="506" y="850" dominant-baseline="central" font-size="12" fill="#3D3D3A">feedback / retry</text>
  <rect x="640" y="844" width="12" height="12" rx="3" fill="#F5F4ED" stroke="rgba(31,30,29,0.3)" stroke-width="0.5"/>
  <text x="658" y="850" dominant-baseline="central" font-size="12" fill="#3D3D3A">plumbing</text>
</svg>
